<svg width="30" height="30" viewBox="0 0 30 30" fill="none" xmlns="http://www.w3.org/2000/svg">
<path d="M13.75 21.25L16.25 23.75C16.4962 23.9962 16.7885 24.1915 17.1103 24.3248C17.432 24.4581 17.7768 24.5267 18.125 24.5267C18.4732 24.5267 18.818 24.4581 19.1397 24.3248C19.4615 24.1915 19.7538 23.9962 20 23.75C20.2462 23.5038 20.4415 23.2115 20.5748 22.8897C20.7081 22.568 20.7767 22.2232 20.7767 21.875C20.7767 21.5268 20.7081 21.182 20.5748 20.8603C20.4415 20.5385 20.2462 20.2462 20 20M17.5 17.5L20.625 20.625C21.1223 21.1223 21.7967 21.4017 22.5 21.4017C23.2032 21.4017 23.8777 21.1223 24.375 20.625C24.8723 20.1277 25.1516 19.4533 25.1516 18.75C25.1516 18.0468 24.8723 17.3723 24.375 16.875L19.525 12.025C18.8219 11.3228 17.8687 10.9283 16.875 10.9283C15.8812 10.9283 14.9281 11.3228 14.225 12.025L13.125 13.125C12.6277 13.6223 11.9532 13.9017 11.25 13.9017C10.5467 13.9017 9.87226 13.6223 9.37498 13.125C8.8777 12.6277 8.59833 11.9533 8.59833 11.25C8.59833 10.5468 8.8777 9.8723 9.37498 9.37502L12.8875 5.86252C14.0278 4.7252 15.5148 4.00071 17.1133 3.80373C18.7117 3.60676 20.3302 3.94856 21.7125 4.77502L22.3 5.12502C22.8322 5.44625 23.465 5.55767 24.075 5.43752L26.25 5.00002M26.25 3.75L27.5 17.5H25M3.75 3.75L2.5 17.5L10.625 25.625C11.1223 26.1223 11.7967 26.4017 12.5 26.4017C13.2033 26.4017 13.8777 26.1223 14.375 25.625C14.8723 25.1277 15.1517 24.4533 15.1517 23.75C15.1517 23.0467 14.8723 22.3723 14.375 21.875M3.75 5H13.75" stroke="black" stroke-width="2" stroke-linecap="round" stroke-linejoin="round"/>
</svg>
