<svg width="469" height="331" viewBox="0 0 469 331" fill="none" xmlns="http://www.w3.org/2000/svg">
<g clip-path="url(#clip0_1_209)">
<path d="M249.722 145.993L247.47 149.472L277.537 168.851L279.788 165.373L249.722 145.993Z" fill="#2F2E41"/>
<path d="M281.278 168.797C285.009 163.034 286.862 157.607 285.419 156.676C283.975 155.746 279.78 159.663 276.049 165.427C272.318 171.19 270.464 176.617 271.908 177.548C273.352 178.478 277.547 174.561 281.278 168.797Z" fill="#2F2E41"/>
<path d="M251.211 149.418C254.941 143.654 256.795 138.227 255.351 137.297C253.907 136.366 249.712 140.284 245.982 146.047C242.251 151.811 240.397 157.237 241.841 158.168C243.285 159.099 247.48 155.181 251.211 149.418Z" fill="#2F2E41"/>
<path d="M349.208 331C415.367 331 469 326.918 469 321.883C469 316.847 415.367 312.765 349.208 312.765C283.048 312.765 229.415 316.847 229.415 321.883C229.415 326.918 283.048 331 349.208 331Z" fill="#E6E6E6"/>
<path d="M119.793 287.301C185.952 287.301 239.585 283.219 239.585 278.184C239.585 273.149 185.952 269.067 119.793 269.067C53.6329 269.067 0 273.149 0 278.184C0 283.219 53.6329 287.301 119.793 287.301Z" fill="#E6E6E6"/>
<path d="M447.747 278.164C447.354 292.812 444.895 307.332 440.443 321.295C440.341 321.62 440.235 321.939 440.128 322.263H412.87C412.899 321.973 412.928 321.649 412.958 321.295C414.775 300.446 425.254 173.548 412.725 151.847C413.82 153.608 449.86 211.915 447.747 278.164Z" fill="#E6E6E6"/>
<path d="M445.702 321.295C445.474 321.62 445.236 321.944 444.994 322.263H424.546C424.701 321.987 424.88 321.663 425.089 321.295C428.467 315.211 438.466 297.022 447.747 278.164C457.721 257.9 466.872 236.866 466.101 229.254C466.339 230.971 473.241 283.31 445.702 321.295Z" fill="#E6E6E6"/>
<path d="M254.606 299.879C254.806 307.314 256.054 314.684 258.314 321.772C258.365 321.936 258.42 322.098 258.474 322.263H272.309C272.295 322.116 272.28 321.951 272.265 321.772C271.342 311.189 266.024 246.778 272.383 235.763C271.827 236.656 253.534 266.252 254.606 299.879Z" fill="#E6E6E6"/>
<path d="M255.645 321.772C255.76 321.936 255.881 322.101 256.004 322.263H266.383C266.304 322.123 266.213 321.958 266.107 321.772C264.393 318.684 259.318 309.451 254.606 299.879C249.544 289.593 244.899 278.917 245.29 275.053C245.169 275.924 241.666 302.491 255.645 321.772Z" fill="#E6E6E6"/>
<path d="M272.265 138.887C272.265 138.887 249.151 161.491 258.859 164.259C268.567 167.026 279.662 143.5 279.662 143.5L272.265 138.887Z" fill="#A0616A"/>
<path d="M295.379 215.002L292.606 227.919L313.409 228.842L310.173 215.002H295.379Z" fill="#A0616A"/>
<path d="M361.025 294.808L358.251 307.725L379.054 308.648L375.818 294.808H361.025Z" fill="#A0616A"/>
<path d="M324.504 128.738L326.353 136.119C326.353 136.119 275.039 125.97 277.813 151.803C280.586 177.636 292.606 202.547 292.606 202.547C292.606 202.547 291.681 210.851 293.53 212.234C295.38 213.618 293.53 218.231 293.53 218.231C293.53 218.231 310.635 220.538 311.097 216.386C311.345 213.611 311.189 210.814 310.635 208.083C310.635 208.083 311.56 208.083 310.635 203.47C309.711 198.857 305.976 161.653 303.202 156.579C303.202 156.579 327.74 175.33 340.684 173.023C340.684 173.023 338.835 191.476 346.231 215.925C353.628 240.374 353.628 243.142 353.628 243.142C353.628 243.142 362.411 289.734 360.1 295.27L359.638 297.576H376.742C376.742 297.576 375.356 273.127 376.742 269.898C378.129 266.669 378.129 238.99 370.27 225.151C364.705 215.351 365.742 186.934 368.786 175.702C371.342 166.27 371.988 159.011 370.489 149.354C368.887 139.028 364.101 133.631 358.251 128.738H324.504Z" fill="#2F2E41"/>
<path d="M338.141 59.3111C347.333 59.3111 354.784 51.8759 354.784 42.704C354.784 33.5322 347.333 26.0969 338.141 26.0969C328.95 26.0969 321.499 33.5322 321.499 42.704C321.499 51.8759 328.95 59.3111 338.141 59.3111Z" fill="#A0616A"/>
<path d="M333.75 54.4674C333.75 54.4674 338.835 69.2292 338.372 71.9971C337.91 74.7649 353.166 66.4614 353.166 66.4614C353.166 66.4614 347.156 51.6995 349.005 47.5477L333.75 54.4674Z" fill="#A0616A"/>
<path d="M352.241 61.387L336.061 67.8453L336.986 73.381C336.986 73.381 335.599 75.2262 336.061 76.1488C336.523 77.0714 330.051 80.7619 330.976 82.1458C331.9 83.5297 325.428 89.0654 325.891 90.4494C326.353 91.8333 311.097 100.137 319.419 116.283C319.419 116.283 323.733 121.879 323.192 128.498C323.173 128.73 323.148 128.964 323.117 129.199C322.192 136.119 358.251 128.277 358.251 128.277V120.434C358.251 120.434 361.487 119.05 361.025 113.053C360.562 107.056 357.789 109.824 361.025 106.595C364.261 103.366 364.261 103.827 363.798 101.059C363.614 99.9542 363.577 95.98 363.599 91.6044C363.641 82.3592 360.624 73.3587 355.015 66.0001L352.241 61.387Z" fill="#1953FF"/>
<path d="M343.458 73.3809L313.409 104.75L269.491 139.348L279.2 147.19L360.1 93.2171C360.1 93.2171 367.034 63.6934 343.458 73.3809Z" fill="#1953FF"/>
<path d="M296.767 221.922C296.767 221.922 293.531 216.386 291.219 218.232L275.039 231.148C275.039 231.148 246.377 239.452 274.114 245.91C274.114 245.91 289.37 248.217 292.606 245.91C295.842 243.603 300.927 244.065 302.314 244.987C303.701 245.91 321.268 244.526 321.268 240.836C321.268 237.145 311.579 221.016 311.579 221.016C311.579 221.016 306.012 227.458 296.767 221.922Z" fill="#2F2E41"/>
<path d="M362.412 301.728C362.412 301.728 359.176 296.193 356.864 298.038L340.684 310.954C340.684 310.954 312.022 319.258 339.759 325.716C339.759 325.716 355.015 328.023 358.251 325.716C361.487 323.41 366.572 323.871 367.959 324.794C369.346 325.716 386.913 324.332 386.913 320.642C386.913 316.951 377.224 300.822 377.224 300.822C377.224 300.822 371.657 307.264 362.412 301.728Z" fill="#2F2E41"/>
<path d="M318.197 36.1178C318.197 36.1178 321.011 11.4348 345.077 18.4432C345.077 18.4432 362.103 14.9875 368.116 36.2066L374.22 58.4533L371.426 57.0045L370.191 59.8409L365.732 61.0591L363.742 57.2983L362.903 61.9277L332.111 68.14C332.111 68.14 342.525 56.2668 342.451 38.8774L339.384 42.2389L318.197 36.1178Z" fill="#2F2E41"/>
<path d="M152.828 16.0472H114.333V63.9492H152.828V16.0472Z" fill="#2F2E41"/>
<path d="M82.5461 239.492L77.2969 258.77L86.0461 265.195L88.3787 263.443L92.4616 243.581L82.5461 239.492Z" fill="#FFB8B8"/>
<path d="M148.454 237.74L146.704 261.106H157.786V239.492L148.454 237.74Z" fill="#FFB8B8"/>
<path d="M113.458 89.9446V103.965L135.039 107.47L153.703 99.8757L150.204 91.1127L113.458 89.9446Z" fill="#FFB8B8"/>
<path d="M130.956 101.628L112.292 98.123L107.626 136.094L95.961 183.412C95.961 183.412 78.4634 223.719 80.7964 233.066L81.963 235.987L80.7964 241.245L92.4615 245.918L97.1275 238.324C97.1275 238.324 100.627 243.581 106.46 232.482C112.292 221.383 136.789 152.451 136.789 152.451L140.872 164.134C139.815 167.738 139.616 171.539 140.288 175.233C141.455 181.075 142.621 199.184 142.621 199.184C142.621 199.184 136.206 230.73 144.954 233.066L146.704 240.076L158.952 241.245L161.285 234.235C161.285 234.235 172.95 230.145 170.034 209.699C167.118 189.254 165.951 122.074 165.951 122.074L154.461 93.6984L130.956 101.628Z" fill="#2F2E41"/>
<path d="M80.7966 257.601C80.7966 257.601 77.8803 255.265 76.7138 255.849C75.5474 256.433 63.299 272.206 63.299 272.206C63.299 272.206 50.4674 282.137 59.7995 283.305C69.1316 284.473 94.7947 271.621 94.7947 268.701C94.7947 265.78 89.4023 258.465 89.4023 258.465C89.4023 258.465 85.4626 261.691 80.7966 257.601Z" fill="#1953FF"/>
<path d="M145.538 255.849C145.538 255.849 156.036 255.196 157.786 256.983C159.536 258.77 158.953 267.532 158.953 267.532C158.953 267.532 160.119 283.305 150.787 283.305C141.455 283.305 143.788 272.79 143.788 272.79L145.538 255.849Z" fill="#1953FF"/>
<path d="M135.039 38.5377C143.092 38.5377 149.62 31.9992 149.62 23.9335C149.62 15.8678 143.092 9.32922 135.039 9.32922C126.986 9.32922 120.458 15.8678 120.458 23.9335C120.458 31.9992 126.986 38.5377 135.039 38.5377Z" fill="#FFB8B8"/>
<path d="M125.415 32.9882C125.415 32.9882 133.581 42.919 117.25 50.5133C100.919 58.1075 128.915 89.6526 128.915 89.6526C128.915 89.6526 161.577 77.3851 158.661 53.4341C158.661 53.4341 138.83 49.9291 143.496 33.5723L125.415 32.9882Z" fill="#FFB8B8"/>
<path d="M116.667 49.9291C116.667 49.9291 103.252 48.1766 102.669 59.2758C102.085 70.375 102.669 97.2468 102.669 97.2468C102.669 97.2468 96.8361 120.614 99.7524 141.06C99.7524 141.06 96.2528 165.011 105.585 163.842C114.917 162.674 107.918 139.307 107.918 139.307L112.001 101.336L110.251 73.2959L117.833 56.355L116.667 49.9291Z" fill="#FFB8B8"/>
<path d="M155.274 52.5098C155.274 52.5098 167.993 52.2657 168.576 61.6124C169.159 70.9591 164.493 99.5834 164.493 99.5834L157.494 103.088L151.079 83.2267L155.274 52.5098Z" fill="#FFB8B8"/>
<path d="M158.952 100.46L157.786 103.381L161.285 112.143C161.285 112.143 147.287 123.242 148.454 125.579C149.62 127.916 156.036 122.658 156.036 122.658L165.368 127.332C165.368 127.332 172.95 119.153 169.451 111.559C167.512 107.476 165.89 103.251 164.6 98.9211C164.6 98.9211 159.536 98.7073 158.952 100.46Z" fill="#FFB8B8"/>
<path d="M114.042 47.8844L112.292 67.162C112.292 67.162 104.127 75.3404 113.459 86.4396L112.292 95.2022C112.292 95.2022 133.873 94.0338 137.955 95.2022C142.038 96.3705 154.647 94.2615 154.647 94.2615L154.87 87.6079C154.87 87.6079 160.702 79.4296 158.953 67.162C157.203 54.8944 158.953 50.8053 158.953 50.8053L154.87 50.2211C154.87 50.2211 152.245 68.0383 134.164 69.7908C134.164 69.7908 111.709 71.8354 118.125 47.8844L114.042 47.8844Z" fill="#E6E6E6"/>
<path d="M136.497 0.274623C136.497 0.274623 121.333 -0.666957 117.833 8.77793C114.334 18.2228 108.209 23.1813 108.209 23.1813C108.209 23.1813 98.5623 29.8977 103.386 41.8873C103.386 41.8873 88.3787 51.9881 98.2941 60.9607C98.2941 60.9607 97.7108 69.9333 103.543 76.0724C103.543 76.0724 108.209 78.4336 106.46 79.8504C104.71 81.2671 118.125 80.3226 116.958 67.5721C115.792 54.8215 123.666 45.8399 123.666 45.8399C123.666 45.8399 116.083 29.3083 119.583 23.6414C121.708 20.2008 122.62 17.6351 124.384 16.1501C125.366 15.3426 126.277 14.4522 127.107 13.4886C127.889 12.4961 128.954 11.7631 130.161 11.3859C131.369 11.0087 132.663 11.005 133.873 11.3752C139.122 12.792 140.288 17.0421 140.288 17.0421C140.288 17.0421 144.079 27.1953 150.495 31.9178C156.911 36.6402 145.538 44.9044 145.538 44.9044C145.538 44.9044 147.515 54.6343 152.65 60.3948C157.786 66.1553 151.17 71.1766 150.787 71.8222C149.912 73.2959 146.418 82.6013 160.851 82.6426C160.851 82.6426 164.202 75.6001 168.868 71.35C173.534 67.0998 170.034 54.8215 170.034 54.8215C170.034 54.8215 177.033 50.5713 169.451 40.182C169.451 40.182 171.784 30.7372 165.368 24.598C165.368 24.598 156.328 -3.03107 136.497 0.274623Z" fill="#2F2E41"/>
<path d="M119.291 25.9781C120.097 25.9781 120.75 24.9319 120.75 23.6414C120.75 22.3509 120.097 21.3047 119.291 21.3047C118.486 21.3047 117.833 22.3509 117.833 23.6414C117.833 24.9319 118.486 25.9781 119.291 25.9781Z" fill="#FFB8B8"/>
<path d="M49.6459 264.601H13.8525V268.742H49.6459V264.601Z" fill="#2F2E41"/>
<path d="M49.6459 279.095C51.3649 279.095 52.7584 273.532 52.7584 266.671C52.7584 259.81 51.3649 254.248 49.6459 254.248C47.927 254.248 46.5334 259.81 46.5334 266.671C46.5334 273.532 47.927 279.095 49.6459 279.095Z" fill="#2F2E41"/>
<path d="M13.8527 279.095C15.5717 279.095 16.9652 273.532 16.9652 266.671C16.9652 259.81 15.5717 254.248 13.8527 254.248C12.1337 254.248 10.7402 259.81 10.7402 266.671C10.7402 273.532 12.1337 279.095 13.8527 279.095Z" fill="#2F2E41"/>
<path d="M41.1491 264.601H5.35571V268.742H41.1491V264.601Z" fill="#2F2E41"/>
<path d="M41.1491 279.095C42.8681 279.095 44.2616 273.532 44.2616 266.671C44.2616 259.81 42.8681 254.248 41.1491 254.248C39.4301 254.248 38.0366 259.81 38.0366 266.671C38.0366 273.532 39.4301 279.095 41.1491 279.095Z" fill="#2F2E41"/>
<path d="M5.35564 279.095C7.07462 279.095 8.46812 273.532 8.46812 266.671C8.46812 259.81 7.07462 254.248 5.35564 254.248C3.63667 254.248 2.24316 259.81 2.24316 266.671C2.24316 273.532 3.63667 279.095 5.35564 279.095Z" fill="#2F2E41"/>
<path d="M448.344 306.342H412.551V310.484H448.344V306.342Z" fill="#2F2E41"/>
<path d="M448.344 320.836C450.063 320.836 451.457 315.274 451.457 308.413C451.457 301.552 450.063 295.99 448.344 295.99C446.625 295.99 445.232 301.552 445.232 308.413C445.232 315.274 446.625 320.836 448.344 320.836Z" fill="#2F2E41"/>
<path d="M412.551 320.836C414.27 320.836 415.663 315.274 415.663 308.413C415.663 301.552 414.27 295.99 412.551 295.99C410.832 295.99 409.438 301.552 409.438 308.413C409.438 315.274 410.832 320.836 412.551 320.836Z" fill="#2F2E41"/>
</g>
<defs>
<clipPath id="clip0_1_209">
<rect width="469" height="331" fill="white"/>
</clipPath>
</defs>
</svg>
